# xmcd
#
# Track frame offsets:
#	150
#	10934
#	35458
#	62703
#	83220
#	99368
#	129891
#	153314
#	183754
#	206761
#
# Disc length: 3076 seconds
#
# Revision: 0
# Processed by: cddbd v1.5.1PL2 Copyright (c) Steve Scherf et al.
# Submitted via: EasyCDDAExtractor 8.0.2.1
#
DISCID=740c020a
DTITLE=Saxon  - Garvaren Ljungby 18-12-97 Disc 1
DYEAR=1997
DGENRE=Hard Rock
TTITLE0=Intro
TTITLE1=Dogs Of War
TTITLE2=Unleash The Beast
TTITLE3=Solid Ball Of Rock
TTITLE4=20 000 Feet
TTITLE5=The Thin Red Line
TTITLE6=747 (Strangers In The Night)
TTITLE7=Dallas 1 PM
TTITLE8=Cut Out The Disease
TTITLE9=Strong Arm Of The Law
EXTD=
EXTT0=
EXTT1=
EXTT2=
EXTT3=
EXTT4=
EXTT5=
EXTT6=
EXTT7=
EXTT8=
EXTT9=
PLAYORDER=
